<?xml version="1.0" encoding="UTF-8" standalone="no"?> <svg id="Customer_segment" xmlns="http://www.w3.org/2000/svg" viewBox="0 0 223.63 223.63"><title>Customer_segment</title><path d="M219.61,17.13v98.32H116V17.13a4.68,4.68,0,0,1,4.68-4.67h94.31A4.67,4.67,0,0,1,219.61,17.13Z" style="fill:#69d6e7"/><path d="M167.88,59.6h0a10,10,0,0,1-10-10h0a10,10,0,0,1,10-10h0a10,10,0,0,1,10,10h0A10,10,0,0,1,167.88,59.6Z" style="fill:#2dc0f0"/><path d="M185.74,88.3H149.83a1.4,1.4,0,0,1-1.41-1.4v-4a19.36,19.36,0,0,1,19.36-19.36h0a19.35,19.35,0,0,1,19.36,19.36v4A1.39,1.39,0,0,1,185.74,88.3Z" style="fill:#2dc0f0"/><path d="M219.61,115.45v98.31a4.67,4.67,0,0,1-4.67,4.67H116v-103Z" style="fill:#bdebff"/><path d="M167.88,161.82h0a10,10,0,0,1-10-10h0a10,10,0,0,1,10-10h0a10,10,0,0,1,10,10h0A10,10,0,0,1,167.88,161.82Z" style="fill:#83d7f5"/><path d="M185.74,190.52H149.83a1.4,1.4,0,0,1-1.41-1.4v-4a19.36,19.36,0,0,1,19.36-19.36h0a19.36,19.36,0,0,1,19.36,19.36v4A1.39,1.39,0,0,1,185.74,190.52Z" style="fill:#83d7f5"/><path d="M116,115.45v103H17a4.67,4.67,0,0,1-4.67-4.67V120.12A4.67,4.67,0,0,1,17,115.45Z" style="fill:#ff9859"/><path d="M64.22,161.44h0a10,10,0,0,1-10-10h0a10,10,0,0,1,10-10h0a10,10,0,0,1,10,10h0A10,10,0,0,1,64.22,161.44Z" style="fill:#ff7d35"/><path d="M82.08,190.14H46.17a1.4,1.4,0,0,1-1.4-1.4v-4A19.36,19.36,0,0,1,64.13,165.4h0a19.36,19.36,0,0,1,19.36,19.36v4A1.41,1.41,0,0,1,82.08,190.14Z" style="fill:#ff7d35"/><rect x="4.29" y="4.46" width="103.66" height="102.99" rx="4.67" style="fill:#008ed3"/><path d="M56.21,51.34h0a9.28,9.28,0,0,1-9.27-9.28h0a9.28,9.28,0,0,1,9.27-9.28h0a9.28,9.28,0,0,1,9.28,9.28h0A9.28,9.28,0,0,1,56.21,51.34Z" style="fill:#fff"/><path d="M72.78,78H39.47a1.3,1.3,0,0,1-1.3-1.3V73a18,18,0,0,1,18-18h0A18,18,0,0,1,74.08,73v3.69A1.3,1.3,0,0,1,72.78,78Z" style="fill:#fff"/><path d="M97.68,10H14.57a4.77,4.77,0,0,0-4.78,4.77V97.17A4.78,4.78,0,0,0,14.57,102H97.68a4.77,4.77,0,0,0,4.77-4.78V14.73A4.76,4.76,0,0,0,97.68,10ZM58.88,96.45V90.78a2.75,2.75,0,0,0-5.5,0v5.67H15.29V58.76h6.07a2.75,2.75,0,1,0,0-5.5H15.29V15.46H53.38v5.18a2.75,2.75,0,1,0,5.5,0V15.46H97v37.8H91.49a2.75,2.75,0,0,0,0,5.5H97V96.45Z" style="fill:#bdebff"/></svg>