<?xml version="1.0" encoding="UTF-8" standalone="no"?> <svg id="Customer_segment" xmlns="http://www.w3.org/2000/svg" viewBox="0 0 223.63 223.63"><title>Customer_segment</title><path d="M112.87,118.89H12.08a3.53,3.53,0,0,0-.21,1.23v93.64a5.46,5.46,0,0,0,5.1,5.13h95.9ZM64.22,141.44a10,10,0,1,1-10,10A10,10,0,0,1,64.22,141.44Zm17.86,48.45H46.17c-.78,0-1.3-.38-1.3-1.15v-4a19.5,19.5,0,0,1,39,0v4C83.87,189.51,82.86,189.89,82.08,189.89Z"/><path d="M118.87,118.89v100h96.07a5.31,5.31,0,0,0,4.93-5.13V118.89Zm49,22.93a10,10,0,1,1-10,10A10,10,0,0,1,167.88,141.82Zm19,47.3c0,.78-.35,1.77-1.13,1.77H149.83c-.78,0-1-1-1-1.77v-4a19,19,0,1,1,38,0Z"/><path d="M118.87,112.89h101V17.13c0-2.58-2.35-4.24-4.93-4.24H120.63a5.6,5.6,0,0,0-1.76.28Zm49-73.29a10,10,0,1,1-10,10A10,10,0,0,1,167.88,39.6Zm-19,43.33a19,19,0,1,1,38,0v4c0,.78-.35,1-1.13,1H149.83c-.78,0-1-.21-1-1Z"/><path d="M58.88,20.64a2.75,2.75,0,1,1-5.5,0V15.46H15.29v37.8h6.07a2.75,2.75,0,1,1,0,5.5H15.29V96.45H53.38V90.78a2.75,2.75,0,0,1,5.5,0v5.67H97V58.76H91.49a2.75,2.75,0,0,1,0-5.5H97V15.46H58.88ZM74.08,73v3.69a1.3,1.3,0,0,1-1.3,1.3H39.47a1.3,1.3,0,0,1-1.3-1.3V73a18,18,0,1,1,35.91,0ZM65.49,42.06a9.28,9.28,0,1,1-9.28-9.28A9.28,9.28,0,0,1,65.49,42.06Z"/><path d="M108,102.78V9.13a4.66,4.66,0,0,0-4.66-4.67H9A4.67,4.67,0,0,0,4.29,9.13v93.65A4.67,4.67,0,0,0,9,107.45h94.33A4.66,4.66,0,0,0,108,102.78Zm-5.5-5.61A4.77,4.77,0,0,1,97.68,102H14.57a4.78,4.78,0,0,1-4.78-4.78V14.73A4.77,4.77,0,0,1,14.57,10H97.68a4.76,4.76,0,0,1,4.77,4.77Z"/></svg>