<?xml version="1.0" encoding="UTF-8" standalone="no"?> <svg xmlns="http://www.w3.org/2000/svg" viewBox="0 0 32 32"><title>Investor</title><g id="_21-30" data-name="21-30"><g id="Investor"><path d="M23.5,16a5.96,5.96,0,0,0-2.982.733A8.923,8.923,0,0,0,17,16H13a9.01,9.01,0,0,0-9,9v2a3,3,0,0,0,3,3H23.5c2.565,0,4.5-1.29,4.5-3V19C28,17.29,26.065,16,23.5,16ZM26,23c0,.29-.876,1-2.5,1S21,23.29,21,23V21.52a6.75,6.75,0,0,0,5,0ZM13.618,28l-.375-.751a1,1,0,0,1-.068-.723L14.754,21h.492l1.579,5.527a.994.994,0,0,1-.068.722L16.382,28Zm5.13-2.022L17.068,20.1l1-2.008a6.844,6.844,0,0,1,1.036.244A2.2,2.2,0,0,0,19,19v8a2.211,2.211,0,0,0,.258,1H18.6A2.99,2.99,0,0,0,18.748,25.978ZM26,19c0,.29-.876,1-2.5,1S21,19.29,21,19s.876-1,2.5-1S26,18.71,26,19ZM15.882,18l-.5,1h-.764l-.5-1ZM6,27V25a7,7,0,0,1,5.927-6.909L12.932,20.1l-1.68,5.877A2.992,2.992,0,0,0,11.4,28H7A1,1,0,0,1,6,27Zm17.5,1c-1.624,0-2.5-.71-2.5-1V25.52a6.75,6.75,0,0,0,5,0V27C26,27.29,25.124,28,23.5,28Z"/><path d="M22,9a7,7,0,1,0-7,7A7.008,7.008,0,0,0,22,9ZM15,4a4.938,4.938,0,0,1,2.287.58A6.961,6.961,0,0,1,12,7a6.957,6.957,0,0,1-1.48-.176A4.989,4.989,0,0,1,15,4Zm0,10a5.006,5.006,0,0,1-5-5c0-.078.02-.151.023-.229A8.941,8.941,0,0,0,12,9a8.951,8.951,0,0,0,6.843-3.16A4.952,4.952,0,0,1,20,9,5.006,5.006,0,0,1,15,14Z"/></g></g></svg>